<svg xmlns:xlink="http://www.w3.org/1999/xlink" xmlns="http://www.w3.org/2000/svg" width="null" height="null" viewBox="0 0 68 60">
    <g fill="none" fill-rule="evenodd" stroke-linecap="round" stroke-linejoin="round">
        <g>
            <g>
                <g>
                    <path fill="#E0E9E9" fill-rule="nonzero" stroke="#00736E" d="M28.92 57.55L0.03 40.87 0.03 24.07 28.92 40.75z" transform="translate(-1057 -1388) translate(920 1335) translate(138 54)"/>
                    <path fill="#E0E9E9" fill-rule="nonzero" stroke="#00736E" d="M28.92 40.75L14.47 21.84 0.03 24.07z" transform="translate(-1057 -1388) translate(920 1335) translate(138 54)"/>
                    <path fill="#FCF9F7" fill-rule="nonzero" stroke="#00736E" d="M11.38 47.42L4.79 43.62 4.79 31.55 11.38 35.36zM24.15 47.23L16.44 42.78 16.44 38.28 24.15 42.73z" transform="translate(-1057 -1388) translate(920 1335) translate(138 54)"/>
                    <path stroke="#00736E" d="M65.97 19.36L51.53 0.45 37.08 2.68z" transform="translate(-1057 -1388) translate(920 1335) translate(138 54)"/>
                    <path fill="#E0E9E9" fill-rule="nonzero" stroke="#00736E" d="M28.92 57.55L65.97 36.16 65.97 19.36 28.92 40.75z" transform="translate(-1057 -1388) translate(920 1335) translate(138 54)"/>
                    <path stroke="#00736E" d="M32.89 47.69L62 30.88 62 26.38 32.89 43.19z" transform="translate(-1057 -1388) translate(920 1335) translate(138 54)"/>
                    <path fill="#FCF9F7" fill-rule="nonzero" stroke="#00736E" d="M56.18 34.24L62 30.88 62 26.38 56.18 29.74zM50.36 37.6L56.18 34.24 56.18 29.74 50.36 33.1zM44.53 40.97L50.36 37.6 50.36 33.1 44.53 36.47zM38.71 44.33L44.53 40.97 44.53 36.47 38.71 39.83zM32.89 47.69L38.71 44.33 38.71 39.83 32.89 43.19z" transform="translate(-1057 -1388) translate(920 1335) translate(138 54)"/>
                    <path fill="#E0E9E9" fill-rule="nonzero" stroke="#00736E" d="M51.53 0.45L65.97 19.36 28.92 40.75 14.47 21.84z" transform="translate(-1057 -1388) translate(920 1335) translate(138 54)"/>
                    <path fill="#E0E9E9" fill-rule="nonzero" stroke="#00736E" d="M37.08 2.68L51.53 0.45 14.47 21.84 0.03 24.07z" transform="translate(-1057 -1388) translate(920 1335) translate(138 54)"/>
                    <path fill="#FCF9F7" fill-rule="nonzero" stroke="#FF3000" d="M47.58 16.39L48.45 18.73 51.53 20.7 49.78 22.31 50.65 24.65 47.11 24.77 45.36 26.38 41.68 24.96 38.13 25.09 36.03 22.8 32.35 21.38 32.82 19.28 30.72 16.99 33.53 16.07 34 13.97 37.85 14.66 40.66 13.74 43.74 15.71z" transform="translate(-1057 -1388) translate(920 1335) translate(138 54)"/>
                    <path fill="#EFD8D5" fill-rule="nonzero" stroke="#FF3000" d="M32.82 19.29L35.16 18.48 35.55 16.65 38.74 17.25 41.08 16.44 43.64 18.17 46.84 18.77 47.56 20.81 49.78 22.31 51.53 20.7 48.45 18.73 47.58 16.39 43.74 15.71 40.66 13.74 37.85 14.66 34 13.97 33.53 16.07 30.72 16.99z" transform="translate(-1057 -1388) translate(920 1335) translate(138 54)"/>
                </g>
            </g>
        </g>
    </g>
</svg>