<svg xmlns:xlink="http://www.w3.org/1999/xlink" xmlns="http://www.w3.org/2000/svg" width="null" height="null" viewBox="0 0 48 68">
    <g fill="none" fill-rule="evenodd" stroke-linecap="round" stroke-linejoin="round">
        <g>
            <g>
                <g>
                    <path fill="#E0E9E9" fill-rule="nonzero" stroke="#00736E" d="M9.18 58.53c0 1.86 1.27 3.72 3.74 5.15 4.25 2.45 10.73 2.82 15.6 1.08v-4.59c4.365-.563 8.139-3.322 10-7.31l4.34-.9c1.731-.351 2.91-1.964 2.72-3.72h0c-.095-.913-.552-1.75-1.267-2.324-.716-.575-1.631-.84-2.543-.736l-7 .82c-2.28.26-4.389-1.24-4.89-3.48h0c-.907-4.19-.517-8.557 1.12-12.52l5.48-13.47c.668-1.635-.061-3.508-1.66-4.26h0c-.82-.39-1.765-.425-2.612-.098-.847.328-1.522.988-1.868 1.828l-6.69 15.1 2.06-24.77c.124-1.487-.917-2.82-2.39-3.06h-.23c-1.547-.254-3.01.786-3.28 2.33l-3 20.73-2.49-21.59c-.153-1.522-1.472-2.657-3-2.58h0c-.766.041-1.484.388-1.992.964-.508.575-.763 1.33-.708 2.096l1.55 19.72L5.54 7.68c-.204-.613-.648-1.117-1.23-1.396-.583-.28-1.255-.31-1.86-.084h0C1.329 6.633.707 7.834 1 9l3 11.3c.662 2.534.998 5.141 1 7.76V37c-.001 4.118.9 8.187 2.64 11.92l1.62 3.47v6.14" transform="translate(-325 -1104) translate(178 1057) translate(147 48)"/>
                    <path stroke="#00736E" d="M10.24 29.41L23.61 37.13M20.9 51.6c1.68-2.586 4.328-4.388 7.35-5" transform="translate(-325 -1104) translate(178 1057) translate(147 48)"/>
                    <path fill="#EFD8D5" fill-rule="nonzero" stroke="#FF3000" d="M31.81 28l4.67-11.46c.658-1.636-.07-3.5-1.66-4.26h0c-.82-.384-1.76-.418-2.606-.093-.845.324-1.522.979-1.874 1.813l-5 11.21c1.408 2.136 3.95 3.232 6.47 2.79zM28.48 18.17L30.88 25.31M33.34 24.27L30.05 14.63M32.2 20.92L35.07 20.02M26.48 22.7L29.67 21.71M31.36 18.48L36.31 16.96M32.89 14.65L33.98 17.68M30.22 14.23L36.7 15.24" transform="translate(-325 -1104) translate(178 1057) translate(147 48)"/>
                    <path stroke="#FF3000" d="M32.83 25.53c-2.437.074-4.775-.968-6.35-2.83M38.16 1.71L34.89 3.79 38.16 5.88 34.89 7.97M46.53 9.25L42.74 8.42 43.57 12.21 39.79 11.38M47.11 20.51L45.02 17.25 42.93 20.51 40.84 17.25" transform="translate(-325 -1104) translate(178 1057) translate(147 48)"/>
                </g>
            </g>
        </g>
    </g>
</svg>