<svg xmlns:xlink="http://www.w3.org/1999/xlink" xmlns="http://www.w3.org/2000/svg" width="null" height="null" viewBox="0 0 59 68">
    <g fill="none" fill-rule="evenodd">
        <g>
            <g>
                <g transform="translate(-1062 -1104) translate(920 1057) translate(142 48)">
                    <path fill="#E0E9E9" fill-rule="nonzero" stroke="#00736E" stroke-linecap="round" stroke-linejoin="round" d="M58.21 21.5L21.09 0.07 17.75 1.99 54.87 23.42z"/>
                    <path fill="#E0E9E9" fill-rule="nonzero" stroke="#00736E" stroke-linecap="round" stroke-linejoin="round" d="M54.87 65.98L54.87 23.42 58.21 21.5 58.21 64.05z"/>
                    <path fill="#FCF9F7" fill-rule="nonzero" stroke="#00736E" stroke-linecap="round" stroke-linejoin="round" d="M24.36 5.81L24.36 1.95 27.7 0.02 27.7 3.88z"/>
                    <path stroke="#00736E" stroke-linecap="round" stroke-linejoin="round" d="M54.87 65.98L17.75 44.55 17.75 1.99 54.87 23.42z"/>
                    <path fill="#E0E9E9" fill-rule="nonzero" stroke="#00736E" stroke-linecap="round" stroke-linejoin="round" d="M54.87 29.75L17.75 8.32 17.75 1.99 54.87 23.42z"/>
                    <path fill="#E0E9E9" fill-rule="nonzero" d="M22.82 16.74L49.8 32.32 49.8 57.55 22.82 41.98z"/>
                    <path stroke="#00736E" stroke-linecap="round" stroke-linejoin="round" d="M33.99 44.22L51.31 54.22M29.23 35.86L51.31 48.61M21.32 25.68L51.31 43M21.32 20.07L51.31 37.39M46.31 28.89L46.31 56.95M41.31 26L41.31 54.06M36.31 23.12L36.31 51.18M31.31 20.23L31.31 40.68M26.32 32.18L26.32 17.35"/>
                    <path fill="#FCF9F7" fill-rule="nonzero" stroke="#00736E" stroke-linecap="round" stroke-linejoin="round" d="M27.7 7.75L27.7 3.89 31.03 1.96 31.03 5.82z"/>
                    <path fill="#FCF9F7" fill-rule="nonzero" stroke="#00736E" stroke-linecap="round" stroke-linejoin="round" d="M27.7 0.02L31.03 1.96 27.7 3.89 24.36 1.95z"/>
                    <path fill="#FCF9F7" fill-rule="nonzero" stroke="#00736E" stroke-linecap="round" stroke-linejoin="round" d="M27.7 3.89L27.7 7.75 24.36 5.81 24.36 1.95zM44.92 17.67L44.92 13.81 48.26 11.88 48.26 15.74zM48.26 19.61L48.26 15.75 51.6 13.82 51.6 17.68z"/>
                    <path fill="#FCF9F7" fill-rule="nonzero" stroke="#00736E" stroke-linecap="round" stroke-linejoin="round" d="M48.26 11.88L51.6 13.82 48.26 15.75 44.92 13.81z"/>
                    <path fill="#FCF9F7" fill-rule="nonzero" stroke="#00736E" stroke-linecap="round" stroke-linejoin="round" d="M48.26 15.75L48.26 19.61 44.92 17.67 44.92 13.81z"/>
                    <ellipse cx="17.748" cy="44.458" fill="#EFD8D5" fill-rule="nonzero" stroke="#FF3000" stroke-linecap="round" stroke-linejoin="round" rx="9.73" ry="16.85" transform="rotate(-30.36 17.748 44.458)"/>
                    <path fill="#FCF9F7" fill-rule="nonzero" stroke="#FF3000" stroke-linecap="round" stroke-linejoin="round" d="M22.58 41.71L12.92 47.21M22.58 52.79L12.92 36.14"/>
                </g>
            </g>
        </g>
    </g>
</svg>