<svg xmlns:xlink="http://www.w3.org/1999/xlink" xmlns="http://www.w3.org/2000/svg" width="null" height="null" viewBox="0 0 44 70">
    <g fill="none" fill-rule="evenodd">
        <g>
            <g>
                <g transform="translate(-698 -1381) translate(549 1335) translate(150 47)">
                    <path fill="#EFD8D5" fill-rule="nonzero" d="M33.56 46.5l3 1.72c-.72 1.951-1.731 3.782-3 5.43-1.804-.318-3.222-1.72-3.56-3.52-.396-2.054-.686-4.126-.87-6.21l4.43 2.58z"/>
                    <path stroke="#FF3000" stroke-linecap="round" stroke-linejoin="round" d="M33.56 46.5L37 22c0-.13.18-.23.21-.12 1.54 7 1.29 14.72.09 23.21h0c-.475 2.92-1.64 5.683-3.4 8.06l-7.41 10.24c-1.06 1.46-1.31 3.27-.57 4.06h0c.74.78 2.19.23 3.25-1.22h0c2.1-2.91 2.61-6.53 1.14-8.09h0l2.51-3.45"/>
                    <path fill="#FCF9F7" fill-rule="nonzero" stroke="#00736E" stroke-linecap="round" stroke-linejoin="round" d="M41.17 50.89L0.37 27.34 0.37 0.2 41.17 23.75z"/>
                    <path fill="#E0E9E9" fill-rule="nonzero" stroke="#00736E" stroke-linecap="round" stroke-linejoin="round" d="M41.17 29.06c-2.732-1.774-4.453-4.747-4.63-8l4.63 2.67v5.33zM36.54 48.22c0-2.93 2.07-4.11 4.63-2.64v5.31l-4.63-2.67zM.37 22c2.732 1.774 4.453 4.747 4.63 8L.37 27.33V22zM.37 5.5C2.93 7 5 5.8 5 2.87L.37.2v5.3z"/>
                    <ellipse cx="20.768" cy="25.544" fill="#E0E9E9" fill-rule="nonzero" rx="7.64" ry="13.23" transform="rotate(-30.36 20.768 25.544)"/>
                    <path stroke="#00736E" stroke-linecap="round" stroke-linejoin="round" d="M17.77 27.25c.118 2.106 1.232 4.03 3 5.18 1.66 1 3 .19 3-1.71-.118-2.106-1.232-4.03-3-5.18-1.769-1.145-2.884-3.066-3-5.17 0-1.9 1.34-2.67 3-1.71 1.77 1.148 2.886 3.073 3 5.18"/>
                    <path fill="#FCF9F7" fill-rule="nonzero" stroke="#00736E" stroke-linecap="round" stroke-linejoin="round" d="M20.77 18.66L20.77 16.7M20.77 34.39L20.77 32.43"/>
                    <path fill="#EFD8D5" fill-rule="nonzero" stroke="#FF3000" stroke-linecap="round" stroke-linejoin="round" d="M29.81 49.43c-1.341-7.718-1.31-15.612.09-23.32 0-.13.18-.23.2-.11l3.47 20.57"/>
                    <path stroke="#FF3000" stroke-linecap="round" stroke-linejoin="round" d="M36.82 54.37h0c-1.48 3.27-1 6.3 1.14 6.77h0c1 .24 2.51-.89 3.25-2.53h0c.74-1.64.48-3.16-.58-3.39l-7.43-1.65c-1.79-.4-3-1.89-3.39-4.14h0"/>
                    <ellipse cx="33.636" cy="49.903" fill="#FF3000" fill-rule="nonzero" rx="1.35" ry="1" transform="rotate(-59.331 33.636 49.903)"/>
                </g>
            </g>
        </g>
    </g>
</svg>